<svg width="20" height="20" viewBox="0 0 20 20" fill="none" xmlns="http://www.w3.org/2000/svg">
<g id="activate-icon 1" clip-path="url(#clip0_35_197)">
<g id="Group">
<path id="Vector" d="M9.98877 11.7727C9.38264 11.7727 8.89111 11.2814 8.89111 10.6751V1.20755C8.89111 0.601424 9.38264 0.109894 9.98877 0.109894C10.5951 0.109894 11.0864 0.601424 11.0864 1.20755V10.6751C11.0864 11.2814 10.5951 11.7727 9.98877 11.7727Z" fill="#636363"/>
<path id="Vector_2" d="M9.98878 19.8677C4.90268 19.8677 0.76474 15.7298 0.76474 10.6437C0.76474 7.09253 2.74908 3.91657 5.94304 2.35526C6.4877 2.08897 7.1452 2.31487 7.41127 2.85931C7.67734 3.40397 7.45188 4.06124 6.90722 4.32753C4.47262 5.51761 2.96027 7.93773 2.96027 10.6437C2.96005 14.5195 6.11318 17.6724 9.98878 17.6724C13.8644 17.6724 17.0175 14.5195 17.0175 10.6437C17.0175 7.93773 15.5049 5.51761 13.0706 4.32753C12.5259 4.06124 12.3 3.40397 12.5663 2.85931C12.8326 2.31487 13.4905 2.08963 14.0345 2.35526C17.2289 3.91657 19.213 7.09253 19.213 10.6437C19.2128 15.7298 15.0749 19.8677 9.98878 19.8677Z" fill="#636363"/>
</g>
</g>
<defs>
<clipPath id="clip0_35_197">
<rect width="20" height="20" fill="white"/>
</clipPath>
</defs>
</svg>
