<svg width="16" height="16" viewBox="0 0 16 16" fill="none" xmlns="http://www.w3.org/2000/svg">
<path d="M5.1335 10.8667C5.25572 10.9889 5.41127 11.05 5.60016 11.05C5.78905 11.05 5.94461 10.9889 6.06683 10.8667L8.00016 8.93334L9.95016 10.8833C10.0724 11.0056 10.2253 11.0638 10.4088 11.058C10.5919 11.0527 10.7446 10.9889 10.8668 10.8667C10.9891 10.7445 11.0502 10.5889 11.0502 10.4C11.0502 10.2111 10.9891 10.0556 10.8668 9.93334L8.9335 8.00001L10.8835 6.05001C11.0057 5.92779 11.0639 5.7749 11.0582 5.59134C11.0528 5.40823 10.9891 5.25557 10.8668 5.13334C10.7446 5.01112 10.5891 4.95001 10.4002 4.95001C10.2113 4.95001 10.0557 5.01112 9.9335 5.13334L8.00016 7.06668L6.05016 5.11668C5.92794 4.99445 5.77527 4.93601 5.59216 4.94134C5.40861 4.94712 5.25572 5.01112 5.1335 5.13334C5.01127 5.25557 4.95016 5.41112 4.95016 5.60001C4.95016 5.7889 5.01127 5.94445 5.1335 6.06668L7.06683 8.00001L5.11683 9.95001C4.99461 10.0722 4.93638 10.2249 4.94216 10.408C4.9475 10.5916 5.01127 10.7445 5.1335 10.8667ZM8.00016 14.6667C7.07794 14.6667 6.21127 14.4916 5.40016 14.1413C4.58905 13.7916 3.8835 13.3167 3.2835 12.7167C2.6835 12.1167 2.20861 11.4111 1.85883 10.6C1.50861 9.7889 1.3335 8.92223 1.3335 8.00001C1.3335 7.07779 1.50861 6.21112 1.85883 5.40001C2.20861 4.5889 2.6835 3.88334 3.2835 3.28334C3.8835 2.68334 4.58905 2.20823 5.40016 1.85801C6.21127 1.50823 7.07794 1.33334 8.00016 1.33334C8.92238 1.33334 9.78905 1.50823 10.6002 1.85801C11.4113 2.20823 12.1168 2.68334 12.7168 3.28334C13.3168 3.88334 13.7917 4.5889 14.1415 5.40001C14.4917 6.21112 14.6668 7.07779 14.6668 8.00001C14.6668 8.92223 14.4917 9.7889 14.1415 10.6C13.7917 11.4111 13.3168 12.1167 12.7168 12.7167C12.1168 13.3167 11.4113 13.7916 10.6002 14.1413C9.78905 14.4916 8.92238 14.6667 8.00016 14.6667ZM8.00016 13.3333C9.47794 13.3333 10.7364 12.814 11.7755 11.7753C12.8142 10.7362 13.3335 9.47779 13.3335 8.00001C13.3335 6.52223 12.8142 5.26379 11.7755 4.22468C10.7364 3.18601 9.47794 2.66668 8.00016 2.66668C6.52238 2.66668 5.26416 3.18601 4.2255 4.22468C3.18638 5.26379 2.66683 6.52223 2.66683 8.00001C2.66683 9.47779 3.18638 10.7362 4.2255 11.7753C5.26416 12.814 6.52238 13.3333 8.00016 13.3333Z" fill="#636363"/>
</svg>
