<svg width="11" height="8" viewBox="0 0 11 8" fill="none" xmlns="http://www.w3.org/2000/svg">
<path d="M2.18087 1.81666C2.30146 1.69444 2.45495 1.63333 2.64132 1.63333C2.82769 1.63333 2.98118 1.69444 3.10177 1.81666L5.66713 4.41666L8.2325 1.81666C8.35309 1.69444 8.50658 1.63333 8.69295 1.63333C8.87932 1.63333 9.0328 1.69444 9.1534 1.81666C9.27399 1.93889 9.33429 2.09444 9.33429 2.28333C9.33429 2.47222 9.27399 2.62778 9.1534 2.75L6.12758 5.81666C6.06181 5.88333 5.99055 5.93066 5.9138 5.95866C5.83706 5.98622 5.75484 6 5.66713 6C5.57943 6 5.49721 5.98622 5.42046 5.95866C5.34372 5.93066 5.27246 5.88333 5.20668 5.81666L2.18087 2.75C2.06028 2.62778 1.99998 2.47222 1.99998 2.28333C1.99998 2.09444 2.06028 1.93889 2.18087 1.81666Z" fill="#2F2F2F"/>
</svg>
