<svg xmlns="http://www.w3.org/2000/svg" width="16" height="16" viewBox="0 0 16 16" fill="none">
<path d="M4.46668 5.8C4.5889 5.67778 4.74445 5.61667 4.93334 5.61667C5.12223 5.61667 5.27779 5.67778 5.40001 5.8L8.00001 8.4L10.6 5.8C10.7222 5.67778 10.8778 5.61667 11.0667 5.61667C11.2556 5.61667 11.4111 5.67778 11.5333 5.8C11.6556 5.92222 11.7167 6.07778 11.7167 6.26667C11.7167 6.45556 11.6556 6.61111 11.5333 6.73334L8.46667 9.8C8.40001 9.86667 8.32779 9.914 8.25001 9.942C8.17223 9.96956 8.0889 9.98334 8.00001 9.98334C7.91112 9.98334 7.82779 9.96956 7.75001 9.942C7.67223 9.914 7.60001 9.86667 7.53334 9.8L4.46668 6.73334C4.34445 6.61111 4.28334 6.45556 4.28334 6.26667C4.28334 6.07778 4.34445 5.92222 4.46668 5.8Z" fill="white"/>
</svg>