<svg width="9" height="12" viewBox="0 0 9 12" fill="none" xmlns="http://www.w3.org/2000/svg">
<path d="M2.68333 9.65342C2.56111 9.53282 2.5 9.37934 2.5 9.19297C2.5 9.0066 2.56111 8.85311 2.68333 8.73252L5.28333 6.16716L2.68333 3.60179C2.56111 3.4812 2.5 3.32771 2.5 3.14134C2.5 2.95497 2.56111 2.80148 2.68333 2.68089C2.80556 2.5603 2.96111 2.5 3.15 2.5C3.33889 2.5 3.49444 2.5603 3.61667 2.68089L6.68333 5.70671C6.75 5.77248 6.79733 5.84374 6.82533 5.92049C6.85289 5.99723 6.86667 6.07945 6.86667 6.16716C6.86667 6.25486 6.85289 6.33708 6.82533 6.41382C6.79733 6.49057 6.75 6.56183 6.68333 6.62761L3.61667 9.65342C3.49444 9.77401 3.33889 9.83431 3.15 9.83431C2.96111 9.83431 2.80556 9.77401 2.68333 9.65342Z" fill="#2F2F2F"/>
</svg>
