<svg width="16" height="16" viewBox="0 0 16 16" fill="none" xmlns="http://www.w3.org/2000/svg">
<g id="material-symbols:view-column-outline-rounded">
<path id="Vector" d="M2 11.3333V4.66667C2 4.3 2.13044 3.98622 2.39133 3.72534C2.65267 3.464 2.96667 3.33334 3.33333 3.33334H12.65C13.0167 3.33334 13.3307 3.464 13.592 3.72534C13.8529 3.98622 13.9833 4.3 13.9833 4.66667V11.3333C13.9833 11.7 13.8529 12.014 13.592 12.2753C13.3307 12.5362 13.0167 12.6667 12.65 12.6667H3.33333C2.96667 12.6667 2.65267 12.5362 2.39133 12.2753C2.13044 12.014 2 11.7 2 11.3333ZM3.33333 11.3333H5.55V4.66667H3.33333V11.3333ZM6.88333 11.3333H9.1V4.66667H6.88333V11.3333ZM10.4333 11.3333H12.65V4.66667H10.4333V11.3333Z" fill="#636363"/>
</g>
</svg>
