<svg width="13" height="14" viewBox="0 0 13 14" fill="none" xmlns="http://www.w3.org/2000/svg">
<g id="Group">
<path id="Vector" d="M6.47419 8.18595C6.04876 8.18595 5.70377 7.84111 5.70377 7.41553V0.770428C5.70377 0.344998 6.04876 0 6.47419 0C6.89978 0 7.24462 0.344998 7.24462 0.770428V7.41553C7.24462 7.84111 6.89978 8.18595 6.47419 8.18595Z" fill="white"/>
<path id="Vector_2" d="M6.47422 13.8677C2.90436 13.8677 0 10.9634 0 7.39351C0 4.90102 1.39278 2.67186 3.63457 1.576C4.01686 1.3891 4.47834 1.54765 4.6651 1.92979C4.85185 2.31207 4.6936 2.7734 4.31132 2.96031C2.60251 3.79561 1.54101 5.49425 1.54101 7.39351C1.54086 10.1139 3.75399 12.3269 6.47422 12.3269C9.19444 12.3269 11.4076 10.1139 11.4076 7.39351C11.4076 5.49425 10.3459 3.79561 8.63727 2.96031C8.25498 2.7734 8.09643 2.31207 8.28333 1.92979C8.47024 1.54765 8.93204 1.38956 9.31386 1.576C11.556 2.67186 12.9486 4.90102 12.9486 7.39351C12.9484 10.9634 10.0441 13.8677 6.47422 13.8677Z" fill="white"/>
</g>
</svg>
