<svg width="9" height="6" viewBox="0 0 9 6" fill="none" xmlns="http://www.w3.org/2000/svg">
<path id="Vector" d="M0.591412 0.963362C0.729085 0.84114 0.904304 0.780029 1.11707 0.780029C1.32984 0.780029 1.50506 0.84114 1.64273 0.963362L4.57142 3.56336L7.5001 0.963362C7.63778 0.84114 7.813 0.780029 8.02576 0.780029C8.23853 0.780029 8.41375 0.84114 8.55143 0.963362C8.6891 1.08558 8.75793 1.24114 8.75793 1.43003C8.75793 1.61892 8.6891 1.77447 8.55143 1.8967L5.09708 4.96336C5.02198 5.03003 4.94063 5.07736 4.85302 5.10536C4.76541 5.13292 4.67154 5.1467 4.57142 5.1467C4.47129 5.1467 4.37742 5.13292 4.28981 5.10536C4.2022 5.07736 4.12085 5.03003 4.04576 4.96336L0.591412 1.8967C0.453738 1.77447 0.384901 1.61892 0.384901 1.43003C0.384901 1.24114 0.453738 1.08558 0.591412 0.963362Z" fill="#2F2F2F"/>
</svg>
