<svg width="20" height="16" viewBox="0 0 20 16" fill="none" xmlns="http://www.w3.org/2000/svg">
<g id="material-symbols:last-page-rounded">
<path id="Vector" d="M14.0626 4.46667C14.2083 4.58889 14.2811 4.74444 14.2811 4.93333C14.2811 5.12222 14.2083 5.27778 14.0626 5.4L10.9641 8L14.0626 10.6C14.2083 10.7222 14.2811 10.8778 14.2811 11.0667C14.2811 11.2556 14.2083 11.4111 14.0626 11.5333C13.917 11.6556 13.7316 11.7167 13.5065 11.7167C13.2814 11.7167 13.096 11.6556 12.9503 11.5333L9.29567 8.46667C9.21622 8.4 9.15981 8.32778 9.12644 8.25C9.0936 8.17222 9.07718 8.08889 9.07718 8C9.07718 7.91111 9.0936 7.82778 9.12644 7.75C9.15981 7.67222 9.21622 7.6 9.29567 7.53333L12.9503 4.46667C13.096 4.34444 13.2814 4.28333 13.5065 4.28333C13.7316 4.28333 13.917 4.34444 14.0626 4.46667ZM5.56154 4C5.78665 4 5.97521 4.064 6.12722 4.192C6.27976 4.31955 6.35604 4.47778 6.35604 4.66667L6.35604 11.3333C6.35604 11.5222 6.27976 11.6807 6.12722 11.8087C5.97521 11.9362 5.78665 12 5.56154 12C5.33643 12 5.14787 11.9362 4.99586 11.8087C4.84332 11.6807 4.76705 11.5222 4.76705 11.3333L4.76705 4.66667C4.76705 4.47778 4.84332 4.31955 4.99586 4.192C5.14787 4.064 5.33643 4 5.56154 4Z" fill="#296689"/>
</g>
</svg>
