<svg width="20" height="16" viewBox="0 0 20 16" fill="none" xmlns="http://www.w3.org/2000/svg">
<g id="material-symbols:last-page-rounded">
<path id="Vector" d="M5.04118 11.5333C4.89552 11.4111 4.82269 11.2556 4.82269 11.0667C4.82269 10.8778 4.89552 10.7222 5.04118 10.6L8.13971 8L5.04118 5.4C4.89552 5.27778 4.82269 5.12222 4.82269 4.93333C4.82269 4.74444 4.89552 4.58889 5.04118 4.46667C5.18684 4.34444 5.37222 4.28333 5.59733 4.28333C5.82243 4.28333 6.00782 4.34444 6.15347 4.46667L9.80815 7.53333C9.8876 7.6 9.94401 7.67222 9.97738 7.75C10.0102 7.82778 10.0266 7.91111 10.0266 8C10.0266 8.08889 10.0102 8.17222 9.97738 8.25C9.94401 8.32778 9.8876 8.4 9.80815 8.46667L6.15347 11.5333C6.00782 11.6556 5.82243 11.7167 5.59733 11.7167C5.37222 11.7167 5.18684 11.6556 5.04118 11.5333ZM13.5423 12C13.3172 12 13.1286 11.936 12.9766 11.808C12.8241 11.6804 12.7478 11.5222 12.7478 11.3333V4.66667C12.7478 4.47778 12.8241 4.31933 12.9766 4.19133C13.1286 4.06378 13.3172 4 13.5423 4C13.7674 4 13.9559 4.06378 14.108 4.19133C14.2605 4.31933 14.3368 4.47778 14.3368 4.66667V11.3333C14.3368 11.5222 14.2605 11.6804 14.108 11.808C13.9559 11.936 13.7674 12 13.5423 12Z" fill="#296689"/>
</g>
</svg>
