<svg width="20" height="16" viewBox="0 0 20 16" fill="none" xmlns="http://www.w3.org/2000/svg">
<g id="material-symbols:chevron-right-rounded">
<path id="Vector" d="M7.11311 11.5333C6.96745 11.4111 6.89462 11.2555 6.89462 11.0667C6.89462 10.8778 6.96745 10.7222 7.11311 10.6L10.2116 7.99999L7.11311 5.39999C6.96745 5.27777 6.89462 5.12221 6.89462 4.93333C6.89462 4.74444 6.96745 4.58888 7.11311 4.46666C7.25877 4.34444 7.44415 4.28333 7.66926 4.28333C7.89436 4.28333 8.07975 4.34444 8.2254 4.46666L11.8801 7.53333C11.9595 7.59999 12.0159 7.67221 12.0493 7.74999C12.0821 7.82777 12.0986 7.9111 12.0986 7.99999C12.0986 8.08888 12.0821 8.17221 12.0493 8.24999C12.0159 8.32777 11.9595 8.39999 11.8801 8.46666L8.2254 11.5333C8.07975 11.6555 7.89436 11.7167 7.66926 11.7167C7.44415 11.7167 7.25877 11.6555 7.11311 11.5333Z" fill="#296689"/>
</g>
</svg>
