<svg width="24" height="24" viewBox="0 0 24 24" fill="none" xmlns="http://www.w3.org/2000/svg">
<path d="M12 22.575C11.8667 22.575 11.7417 22.554 11.625 22.512C11.5083 22.4707 11.4 22.4 11.3 22.3L9 20H5C4.45 20 3.979 19.8043 3.587 19.413C3.19567 19.021 3 18.55 3 18V4C3 3.45 3.19567 2.979 3.587 2.587C3.979 2.19567 4.45 2 5 2H19C19.55 2 20.021 2.19567 20.413 2.587C20.8043 2.979 21 3.45 21 4V18C21 18.55 20.8043 19.021 20.413 19.413C20.021 19.8043 19.55 20 19 20H15L12.7 22.3C12.6 22.4 12.4917 22.4707 12.375 22.512C12.2583 22.554 12.1333 22.575 12 22.575ZM5 16.85C5.9 15.9667 6.946 15.2707 8.138 14.762C9.32933 14.254 10.6167 14 12 14C13.3833 14 14.671 14.254 15.863 14.762C17.0543 15.2707 18.1 15.9667 19 16.85V4H5V16.85ZM12 12C12.9667 12 13.7917 11.6583 14.475 10.975C15.1583 10.2917 15.5 9.46667 15.5 8.5C15.5 7.53333 15.1583 6.70833 14.475 6.025C13.7917 5.34167 12.9667 5 12 5C11.0333 5 10.2083 5.34167 9.525 6.025C8.84167 6.70833 8.5 7.53333 8.5 8.5C8.5 9.46667 8.84167 10.2917 9.525 10.975C10.2083 11.6583 11.0333 12 12 12ZM12 10C11.5833 10 11.2293 9.854 10.938 9.562C10.646 9.27067 10.5 8.91667 10.5 8.5C10.5 8.08333 10.646 7.72933 10.938 7.438C11.2293 7.146 11.5833 7 12 7C12.4167 7 12.7707 7.146 13.062 7.438C13.354 7.72933 13.5 8.08333 13.5 8.5C13.5 8.91667 13.354 9.27067 13.062 9.562C12.7707 9.854 12.4167 10 12 10ZM12 20.2L14.2 18H17V17.75C16.3 17.1667 15.525 16.7293 14.675 16.438C13.825 16.146 12.9333 16 12 16C11.0667 16 10.175 16.146 9.325 16.438C8.475 16.7293 7.7 17.1667 7 17.75V18H9.8L12 20.2Z" fill="#3D92AE"/>
</svg>
