<svg width="18" height="17" viewBox="0 0 18 17" fill="none" xmlns="http://www.w3.org/2000/svg">
<g id="fontisto:preview" clip-path="url(#clip0_1_89)">
<path id="Vector" d="M16.824 15.7682L15.3611 14.28C15.6692 13.8012 15.8583 13.2532 15.9118 12.6835C15.9653 12.1137 15.8818 11.5392 15.6683 11.0096C15.4549 10.4801 15.118 10.0114 14.6868 9.64396C14.2555 9.27656 13.7429 9.02154 13.1931 8.90091L13.1701 8.89666V6.01445C13.1702 5.84733 13.1129 5.68544 13.0079 5.55687L13.0086 5.55829V5.55474C12.9955 5.5385 12.9815 5.5229 12.9669 5.50799L12.9613 5.50162L12.9425 5.48249L7.76442 0.212494C7.75001 0.197831 7.73491 0.183884 7.71918 0.170703L7.70108 0.157953C7.68978 0.148588 7.67818 0.13961 7.66629 0.131036L7.64889 0.118286L7.6113 0.0942027L7.5953 0.0857027C7.57952 0.0762582 7.56212 0.0675221 7.5431 0.0594943L7.52082 0.050286L7.48533 0.037536L7.46027 0.0297443L7.41991 0.0191193L7.40042 0.0148693C7.38064 0.0107111 7.36066 0.00763726 7.34057 0.00566101H1.11292C0.926147 0.0064027 0.747204 0.0820971 0.614942 0.216309C0.48268 0.35052 0.407776 0.532414 0.406494 0.722494L0.406494 15.1562C0.406676 15.3471 0.481072 15.5301 0.613433 15.6654C0.745794 15.8006 0.925363 15.8771 1.11292 15.878H12.4644C13.143 15.8792 13.8067 15.6753 14.3714 15.2922L14.3589 15.3L15.8218 16.7889C15.9567 16.9138 16.1336 16.981 16.3159 16.9766C16.4982 16.9722 16.6718 16.8965 16.8007 16.7652C16.9296 16.6339 17.0039 16.4572 17.0081 16.2717C17.0123 16.0861 16.9461 15.9061 16.8233 15.7689L16.824 15.7696V15.7682ZM14.5099 12.3491C14.5099 12.6229 14.457 12.894 14.3541 13.147C14.2512 13.4 14.1003 13.6298 13.9101 13.8235C13.7199 14.0171 13.4941 14.1707 13.2456 14.2756C12.997 14.3804 12.7306 14.4344 12.4616 14.4344C12.1926 14.4345 11.9262 14.3806 11.6776 14.2758C11.429 14.1711 11.2032 14.0176 11.0129 13.824C10.8226 13.6304 10.6717 13.4006 10.5687 13.1476C10.4657 12.8947 10.4127 12.6236 10.4126 12.3498C10.4124 11.7968 10.6281 11.2664 11.0122 10.8753C11.3962 10.4841 11.9172 10.2643 12.4606 10.2641C13.0039 10.2639 13.525 10.4834 13.9094 10.8743C14.2937 11.2652 14.5097 11.7961 14.5099 12.3491ZM7.97043 2.46358L10.7495 5.29266H7.97043V2.46358ZM1.82491 1.44358H6.55271V6.01445C6.55271 6.41324 6.87008 6.73624 7.26192 6.73624H11.7531V8.89666C10.1676 9.24162 8.99561 10.6555 8.99561 12.3484C8.99561 13.1339 9.24756 13.8592 9.67419 14.445L9.66723 14.4358H1.82421L1.82491 1.44358Z" fill="#2F2F2F"/>
</g>
<defs>
<clipPath id="clip0_1_89">
<rect width="16.7036" height="17" fill="white" transform="translate(0.406494)"/>
</clipPath>
</defs>
</svg>
