<svg width="20" height="16" viewBox="0 0 20 16" fill="none" xmlns="http://www.w3.org/2000/svg">
<g id="material-symbols:chevron-right-rounded" >
<path id="Vector" d="M12.9907 4.46668C13.1363 4.5889 13.2092 4.74445 13.2092 4.93334C13.2092 5.12223 13.1363 5.27779 12.9907 5.40001L9.89215 8.00001L12.9907 10.6C13.1363 10.7222 13.2092 10.8778 13.2092 11.0667C13.2092 11.2556 13.1363 11.4111 12.9907 11.5333C12.845 11.6556 12.6596 11.7167 12.4345 11.7167C12.2094 11.7167 12.024 11.6556 11.8784 11.5333L8.22371 8.46667C8.14426 8.40001 8.08785 8.32779 8.05448 8.25001C8.02164 8.17223 8.00522 8.0889 8.00522 8.00001C8.00522 7.91112 8.02164 7.82779 8.05448 7.75001C8.08785 7.67223 8.14426 7.60001 8.22371 7.53334L11.8784 4.46668C12.024 4.34445 12.2094 4.28334 12.4345 4.28334C12.6596 4.28334 12.845 4.34445 12.9907 4.46668Z" fill="#296689"/>
</g>
</svg>
