<?xml version="1.0" encoding="utf-8"?>
<!-- Generator: Adobe Illustrator 27.5.0, SVG Export Plug-In . SVG Version: 6.00 Build 0)  -->
<svg version="1.1" id="Layer_1" xmlns="http://www.w3.org/2000/svg" xmlns:xlink="http://www.w3.org/1999/xlink" x="0px" y="0px"
	 viewBox="0 0 288 64" style="enable-background:new 0 0 288 64;" xml:space="preserve">
<style type="text/css">
	.st0{fill:#FFFFFF;}
</style>
<g>
	<g>
		<path class="st0" d="M91.8,21.7c0.3,0,0.6-0.1,1-0.1c0.3,0,0.6,0,0.9,0c0.3,0,0.6,0,0.9,0c0.3,0,0.6,0.1,0.9,0.1
			c0.1,0.7,0.1,1.6,0.2,2.6c0,1,0.1,1.9,0.1,2.8c0.8-1.5,2-2.8,3.5-3.9c1.5-1.1,3.4-1.6,5.9-1.6c0.2,0,0.4,0,0.6,0
			c0.2,0,0.5,0,0.8,0.1c0.1,0.7,0.2,1.4,0.2,2c0,0.7-0.1,1.3-0.2,1.9c-0.3,0-0.6-0.1-0.8-0.1c-0.2,0-0.4,0-0.6,0
			c-2.8,0-5,0.9-6.7,2.7c-1.7,1.8-2.5,4.7-2.5,8.8v16.2c-0.2,0-0.6,0.1-1,0.1c-0.4,0-0.8,0-1,0c-0.2,0-0.5,0-1,0
			c-0.5,0-0.8,0-1.1-0.1V21.7z M123,54c-2.3,0-4.4-0.4-6.2-1.3c-1.8-0.8-3.2-2-4.4-3.5c-1.2-1.5-2.1-3.2-2.6-5.3
			c-0.6-2-0.9-4.2-0.9-6.5c0-2.3,0.3-4.5,0.9-6.5c0.6-2,1.4-3.8,2.6-5.2c1.2-1.5,2.6-2.7,4.4-3.5c1.8-0.8,3.8-1.3,6.2-1.3
			c2.3,0,4.4,0.4,6.2,1.3c1.8,0.8,3.2,2,4.4,3.5c1.2,1.5,2.1,3.2,2.7,5.2c0.6,2,0.9,4.2,0.9,6.5c0,2.3-0.3,4.5-0.9,6.5
			c-0.6,2-1.5,3.8-2.7,5.3c-1.2,1.5-2.6,2.7-4.4,3.5C127.4,53.6,125.3,54,123,54z M123,50.4c3.3,0,5.8-1.2,7.4-3.5
			c1.6-2.3,2.4-5.5,2.4-9.5c0-4-0.8-7.2-2.4-9.5c-1.6-2.3-4.1-3.5-7.4-3.5c-3.3,0-5.8,1.2-7.4,3.5c-1.6,2.3-2.4,5.5-2.4,9.5
			c0,4,0.8,7.1,2.4,9.5C117.2,49.3,119.7,50.4,123,50.4z M155.2,54c-2.4,0-4.4-0.4-6.2-1.3c-1.8-0.8-3.2-2-4.4-3.5
			c-1.2-1.5-2.1-3.2-2.6-5.3c-0.6-2-0.9-4.2-0.9-6.5c0-2.3,0.3-4.5,0.9-6.5c0.6-2,1.4-3.8,2.6-5.2c1.2-1.5,2.6-2.7,4.4-3.5
			c1.8-0.8,3.8-1.3,6.2-1.3c2.3,0,4.4,0.4,6.1,1.3c1.8,0.8,3.2,2,4.4,3.5c1.2,1.5,2.1,3.2,2.7,5.2c0.6,2,0.9,4.2,0.9,6.5
			c0,2.3-0.3,4.5-0.9,6.5c-0.6,2-1.5,3.8-2.7,5.3c-1.2,1.5-2.6,2.7-4.4,3.5C159.6,53.6,157.6,54,155.2,54z M155.2,50.4
			c3.3,0,5.8-1.2,7.4-3.5c1.6-2.3,2.4-5.5,2.4-9.5c0-4-0.8-7.2-2.4-9.5c-1.6-2.3-4.1-3.5-7.4-3.5c-3.3,0-5.8,1.2-7.4,3.5
			c-1.6,2.3-2.4,5.5-2.4,9.5c0,4,0.8,7.1,2.4,9.5C149.5,49.3,151.9,50.4,155.2,50.4z M174.8,7.8c0.2,0,0.6-0.1,1-0.1
			c0.4,0,0.8,0,1,0c0.2,0,0.5,0,1,0c0.5,0,0.8,0.1,1.1,0.1v18.3c0.9-1.3,2.1-2.5,3.7-3.6c1.6-1.1,3.7-1.6,6.3-1.6
			c1.9,0,3.7,0.3,5.3,0.9c1.6,0.6,3,1.5,4.1,2.8c1.1,1.3,2,2.9,2.7,4.8c0.6,1.9,1,4.3,1,7c0,5.5-1.5,9.8-4.5,12.9
			c-3,3.1-7.4,4.6-13,4.6c-1.9,0-3.6-0.2-5.4-0.5c-1.7-0.4-3.2-0.7-4.3-1.1V7.8z M178.9,49.5c0.9,0.3,1.9,0.6,3,0.7
			c1,0.1,2.2,0.2,3.4,0.2c1.7,0,3.2-0.3,4.7-0.8c1.5-0.5,2.8-1.4,4-2.5c1.1-1.1,2-2.5,2.7-4.2c0.7-1.7,1-3.8,1-6.1
			c0-3.8-0.7-6.7-2.1-8.8c-1.4-2.1-3.7-3.2-6.9-3.2c-1,0-2.1,0.2-3.2,0.5c-1.2,0.3-2.2,0.9-3.2,1.7c-1,0.8-1.8,1.8-2.4,3.1
			c-0.6,1.3-1,2.9-1,4.9V49.5z M208,21.7c0.3,0,0.6-0.1,1-0.1c0.3,0,0.6,0,0.9,0c0.3,0,0.6,0,0.9,0c0.3,0,0.6,0.1,0.9,0.1
			c0.1,0.7,0.1,1.6,0.2,2.6c0,1,0.1,1.9,0.1,2.8c0.8-1.5,2-2.8,3.5-3.9c1.5-1.1,3.4-1.6,5.9-1.6c0.2,0,0.4,0,0.6,0
			c0.2,0,0.5,0,0.8,0.1c0.1,0.7,0.2,1.4,0.2,2c0,0.7-0.1,1.3-0.2,1.9c-0.3,0-0.6-0.1-0.8-0.1c-0.2,0-0.4,0-0.6,0
			c-2.8,0-5,0.9-6.7,2.7c-1.7,1.8-2.5,4.7-2.5,8.8v16.2c-0.2,0-0.6,0.1-1,0.1c-0.4,0-0.8,0-1,0c-0.2,0-0.5,0-1,0c-0.5,0-0.8,0-1-0.1
			V21.7z M231.1,25.2h-4c0-0.2-0.1-0.5-0.1-0.7c0-0.3,0-0.6,0-0.9c0-0.3,0-0.7,0-1c0-0.3,0.1-0.6,0.1-0.8h8v31.5
			c-0.2,0-0.6,0.1-1,0.1c-0.4,0-0.8,0-1,0c-0.2,0-0.5,0-1,0c-0.5,0-0.8,0-1.1-0.1V25.2z M229.1,14c0-0.4-0.1-0.8-0.1-1.4
			c0-0.5,0-1,0-1.4c0-0.3,0-0.7,0-1.2c0-0.5,0-0.9,0.1-1.2c0.4,0,0.8-0.1,1.4-0.1c0.5,0,1,0,1.4,0c0.3,0,0.7,0,1.2,0
			c0.5,0,0.9,0.1,1.2,0.1c0,0.3,0.1,0.7,0.1,1.2c0,0.5,0,0.9,0,1.2c0,0.4,0,0.8,0,1.4c0,0.5,0,1-0.1,1.4c-0.3,0-0.7,0.1-1.2,0.1
			c-0.5,0-0.9,0-1.2,0c-0.4,0-0.8,0-1.4,0C229.9,14.1,229.4,14.1,229.1,14z M242.9,7.8c0.3,0,0.6-0.1,1-0.1c0.4,0,0.8,0,1,0
			c0.2,0,0.5,0,1,0c0.4,0,0.8,0.1,1,0.1v45.4c-0.2,0-0.6,0.1-1,0.1c-0.5,0-0.8,0-1,0c-0.3,0-0.6,0-1,0c-0.4,0-0.8,0-1-0.1V7.8z
			 M249.6,37l11.3-15.3c0.7-0.1,1.4-0.2,2.2-0.2c0.9,0,1.8,0.1,2.6,0.2l-11.2,14.8l13.3,16.7c-0.7,0.1-1.5,0.2-2.2,0.2
			c-0.9,0-1.8-0.1-2.7-0.2L249.6,37z"/>
		<g>
			<path class="st0" d="M270.9,26.7v-4.6h-1.7v-0.6h4.1v0.6h-1.7v4.6H270.9z"/>
			<path class="st0" d="M274.2,26.7v-5.2h1l1.2,3.7c0.1,0.3,0.2,0.6,0.3,0.8c0.1-0.2,0.1-0.5,0.3-0.8l1.3-3.6h0.9v5.2h-0.7v-4.4
				l-1.5,4.4h-0.6l-1.5-4.4v4.4H274.2z"/>
		</g>
	</g>
	<rect x="11" y="9.9" class="st0" width="13.1" height="11.8"/>
	<rect x="27.7" y="9.9" class="st0" width="13.1" height="11.8"/>
	<rect x="44.3" y="9.9" class="st0" width="13.1" height="11.8"/>
	<rect x="11" y="25" class="st0" width="13.1" height="11.8"/>
	<rect x="27.7" y="25" class="st0" width="13.1" height="11.8"/>
	<rect x="27.7" y="40" class="st0" width="13.1" height="11.8"/>
	<rect x="11" y="40" class="st0" width="13.1" height="11.8"/>
	<rect x="44.3" y="25" class="st0" width="13.1" height="11.8"/>
</g>
</svg>
