<svg width="12" height="12" viewBox="0 0 12 12" fill="none" xmlns="http://www.w3.org/2000/svg">
<path d="M8.5 10.5C8.225 10.5 7.98967 10.4022 7.794 10.2065C7.598 10.0105 7.5 9.775 7.5 9.5V9H6.5C6.225 9 5.98967 8.90217 5.794 8.7065C5.598 8.5105 5.5 8.275 5.5 8V4H4.5V4.5C4.5 4.775 4.402 5.01033 4.206 5.206C4.01033 5.402 3.775 5.5 3.5 5.5H2C1.725 5.5 1.48967 5.402 1.294 5.206C1.098 5.01033 1 4.775 1 4.5V2.5C1 2.225 1.098 1.9895 1.294 1.7935C1.48967 1.59783 1.725 1.5 2 1.5H3.5C3.775 1.5 4.01033 1.59783 4.206 1.7935C4.402 1.9895 4.5 2.225 4.5 2.5V3H7.5V2.5C7.5 2.225 7.598 1.9895 7.794 1.7935C7.98967 1.59783 8.225 1.5 8.5 1.5H10C10.275 1.5 10.5105 1.59783 10.7065 1.7935C10.9022 1.9895 11 2.225 11 2.5V4.5C11 4.775 10.9022 5.01033 10.7065 5.206C10.5105 5.402 10.275 5.5 10 5.5H8.5C8.225 5.5 7.98967 5.402 7.794 5.206C7.598 5.01033 7.5 4.775 7.5 4.5V4H6.5V8H7.5V7.5C7.5 7.225 7.598 6.9895 7.794 6.7935C7.98967 6.59783 8.225 6.5 8.5 6.5H10C10.275 6.5 10.5105 6.59783 10.7065 6.7935C10.9022 6.9895 11 7.225 11 7.5V9.5C11 9.775 10.9022 10.0105 10.7065 10.2065C10.5105 10.4022 10.275 10.5 10 10.5H8.5ZM8.5 4.5H10V2.5H8.5V4.5ZM8.5 9.5H10V7.5H8.5V9.5ZM2 4.5H3.5V2.5H2V4.5Z" fill="#636363"/>
</svg>
