<svg width="170" height="96" viewBox="0 0 170 96" version="1.1" xmlns="http://www.w3.org/2000/svg" xmlns:xlink="http://www.w3.org/1999/xlink"> <title>Sunrise_Vert_Logo_RGB</title> <g id="Symbols" stroke="none" stroke-width="1" fill="none" fill-rule="evenodd"> <g id="Globals-/-Nav-/-main-nav-/-careers-/-1920-Large-Desktop" transform="translate(-161.000000, -14.000000)" fill="none"> <g id="Sunrise_Vert_Logo_RGB" transform="translate(161.000000, 14.000000)" fill="none"> <path d="M62.1353252,42.8099978 L39.2307692,37.6512654 L61.3991022,36.1785991 L54.0712485,30.0165762 L63.7137644,30.8247825 L48.384857,14.1267419 L67.4922785,25.7261889 L64.8424486,16.403214 L72.3550743,22.6429773 L68.9059985,0 L78.286396,20.6217282 L81.2370173,11.3926284 L83.9971373,20.885752 L93.6310592,0.200951473 L90.0115349,22.6444441 L97.5313222,16.7332438 L94.5792685,26.1662287 L113.933053,14.6577231 L98.5726337,31.0932068 L108.040404,30.5592919 L100.401732,36.639174 L122.721893,38.3245262 L99.8717664,43.2544379 C100.744062,14.5183772 61.7027584,14.8278718 62.1081107,42.4564992 L62.1109754,42.5034367 L62.1138401,42.5459739 L62.1195695,42.6075795 L62.1210018,42.6339819 L62.1267312,42.7087886 L62.1267312,42.7219898 L62.1353252,42.8099978" id="Fill-1" fill="#EFA82F"></path> <path d="M115.36072,95.4074542 L117.372368,95.4074542 L117.372368,86.3340788 L115.36072,86.3340788 L115.36072,95.4074542 Z M105.52997,86.3340788 L103.308,86.3340788 L107.006514,95.4713113 L108.783518,95.4713113 L112.480601,86.3340788 L110.313,86.3340788 L107.92077,92.7240396 L105.52997,86.3340788 Z M98.4205255,95.4074542 L100.432174,95.4074542 L100.432174,86.3340788 L98.4205255,86.3340788 L98.4205255,95.4074542 Z M90.8775606,86.3340788 L88.8644818,86.3340788 L88.8644818,95.4074542 L95.4373916,95.4074542 L95.4373916,93.5924954 L90.8775606,93.5924954 L90.8775606,86.3340788 Z M78.1938763,88.1348473 C79.1739467,88.1348473 79.7748658,88.5761703 79.7748658,89.4318546 L79.7748658,89.4573975 C79.7748658,90.2222628 79.2125772,90.7402144 78.2325069,90.7402144 L76.1936744,90.7402144 L76.1936744,88.1348473 L78.1938763,88.1348473 Z M78.362706,86.3340788 L74.1805955,86.3340788 L74.1805955,95.4074542 L76.1936744,95.4074542 L76.1936744,92.5040876 L77.7760945,92.5040876 L79.7348045,95.4074542 L82.0869734,95.4074542 L79.8521268,92.1663549 C81.0153344,91.7378032 81.8136983,90.8182619 81.8136983,89.3538071 L81.8136983,89.3282643 C81.8136983,88.47258 81.5389924,87.7602193 81.0282112,87.2536202 C80.4272922,86.6576211 79.5259136,86.3340788 78.362706,86.3340788 Z M63.3955293,90.8452237 C63.3955293,89.2885311 64.5201064,88.0184856 66.1397263,88.0184856 C67.760777,88.0184856 68.9111077,89.3154929 68.9111077,90.8707665 L68.9111077,90.8963093 C68.9111077,92.451583 67.7865307,93.7216285 66.1669107,93.7216285 C64.5458601,93.7216285 63.3955293,92.4246211 63.3955293,90.8707665 L63.3955293,90.8452237 Z M61.2923126,90.8707665 L61.2923126,90.8963093 C61.2923126,93.4761336 63.3168375,95.5621302 66.1397263,95.5621302 C68.9626151,95.5621302 71.0143244,93.4505908 71.0143244,90.8707665 L71.0143244,90.8452237 C71.0143244,88.2653994 68.9897995,86.1779838 66.1669107,86.1779838 C63.3440219,86.1779838 61.2923126,88.2923613 61.2923126,90.8707665 Z M56.0242556,95.4074542 L58.0359037,95.4074542 L58.0359037,86.3340788 L56.0242556,86.3340788 L56.0242556,95.4074542 Z M41.00271,86.3340788 L34.1021562,86.3340788 L34.1021562,95.4074542 L41.0670942,95.4074542 L41.0670942,93.6308096 L36.1023582,93.6308096 L36.1023582,91.7250318 L40.4132371,91.7250318 L40.4132371,89.9512252 L36.1023582,89.9512252 L36.1023582,88.1093045 L41.00271,88.1093045 L41.00271,86.3340788 Z M24.9252638,92.672954 L23.7363026,94.0849041 C24.8336952,95.055531 26.2329782,95.5365874 27.6179535,95.5365874 C29.5909711,95.5365874 30.9773772,94.5248081 30.9773772,92.7240396 L30.9773772,92.6984968 C30.9773772,91.1176804 29.9300611,90.4564053 28.0743658,89.975349 C26.4933764,89.5737592 26.1013483,89.37935 26.1013483,88.783351 L26.1013483,88.7578081 C26.1013483,88.3164851 26.5062533,87.9673999 27.2788635,87.9673999 C28.0500429,87.9673999 28.8455453,88.3037137 29.656786,88.8613984 L30.7012406,87.3572105 C29.7741083,86.6193069 28.6366544,86.2049457 27.3046171,86.2049457 C25.436045,86.2049457 24.1025771,87.2933534 24.1025771,88.9394459 L24.1025771,88.9649887 C24.1025771,90.7657572 25.2915383,91.2723563 27.1343567,91.7378032 C28.6638388,92.1280406 28.9771752,92.3863069 28.9771752,92.891487 L28.9771752,92.9184489 C28.9771752,93.4505908 28.4792708,93.7741331 27.656584,93.7741331 C26.6121295,93.7741331 25.7493814,93.3455815 24.9252638,92.672954 Z M3.595499,53.7102282 C3.595499,51.2396704 5.61716238,49.1536739 9.8536417,49.1536739 C12.4547627,49.1536739 15.167483,50.7458426 17.3264994,55.6316155 C17.4366678,55.9069103 17.5468363,55.9069103 18.2665084,55.9069103 C18.9861805,55.9069103 19.0977798,55.7948057 19.0977798,55.5762727 L19.0977798,48.1660184 C19.0977798,47.9446473 18.8202124,47.8353808 18.2665084,47.8353808 C17.7700348,47.8353808 17.602636,47.8907236 17.4924675,48.0553328 C16.9931324,48.8230363 16.7184265,49.0983311 16.3850595,49.0983311 C15.941524,49.0983311 15.6110185,48.9876456 15.0015149,48.6584271 C13.2288037,47.7261143 11.125587,47.3500673 9.63187396,47.2876293 C4.43821643,47.0690964 0.108737733,50.6351571 0.108737733,55.5762727 C0.108737733,60.4634646 4.262233,62.8233369 9.68767358,64.6893814 C15.5552189,66.7214542 17.2706997,68.312204 17.2706997,71.6611508 C17.2706997,74.5176889 14.9457153,76.9314849 10.9038193,76.9314849 C6.58721742,76.9314849 4.04189601,75.1207831 1.82708007,68.6428415 C1.77128045,68.4782323 1.60388157,68.3689658 0.885640223,68.3689658 C0.165968119,68.3689658 0,68.4782323 0,68.6981843 L0,77.9759022 C0,78.1958542 0.165968119,78.3051207 0.885640223,78.3051207 C1.5495127,78.3051207 1.66111195,78.1958542 1.77128045,78.031245 C2.32498443,77.2621225 2.71272029,76.9314849 3.32079315,76.9314849 C3.70852901,76.9314849 4.09626488,77.0421704 4.53980037,77.2621225 C6.5314178,78.3051207 8.63463448,78.7989485 11.2371863,78.7989485 C16.4966588,78.7989485 20.757461,75.2314687 20.757461,69.7411826 C20.757461,64.9093334 18.3223081,62.1648999 12.2887946,60.1328271 C6.58721742,58.2114398 3.595499,56.5653473 3.595499,53.7102282 Z M49.675975,51.6625459 C49.675975,51.0154612 49.5758218,50.8664615 49.3740847,50.8664615 L40.2544227,50.8664615 C40.0541164,50.8664615 39.9539632,51.0154612 39.9539632,51.6625459 C39.9539632,52.3096305 40.104193,52.4089637 40.2544227,52.4572112 C43.812722,53.1042959 44.0130283,53.451962 44.0130283,57.279127 L44.0130283,70.0519535 C44.0130283,75.2697829 41.3074618,76.9101992 37.2483967,76.9101992 C32.9890252,76.9101992 30.4336885,75.2697829 30.4336885,70.0519535 L30.4336885,54.0976276 C30.4336885,52.606211 30.5839183,52.4572112 32.0862159,52.4572112 L33.8403272,52.4572112 C34.0406336,52.4572112 34.1422175,52.3096305 34.1422175,51.6625459 C34.1422175,51.0154612 34.0406336,50.8664615 33.8403272,50.8664615 L22.5659412,50.8664615 C22.3656348,50.8664615 22.2654817,51.0154612 22.2654817,51.6625459 C22.2654817,52.3096305 22.3656348,52.4572112 22.5659412,52.4572112 L23.9194398,52.4572112 C25.4217374,52.4572112 25.5719672,52.606211 25.5719672,54.0976276 L25.5719672,70.0519535 C25.5719672,75.867201 29.7311855,78.7989485 35.8963288,78.7989485 C42.6609605,78.7989485 46.0175226,75.867201 46.0175226,70.0519535 L46.0175226,57.3287936 C46.0175226,53.451962 46.2178289,53.1042959 49.3740847,52.4572112 C49.5257453,52.4089637 49.675975,52.3096305 49.675975,51.6625459 Z M50.3756165,86.3340788 L50.3756165,91.92086 L46.0890606,86.3340788 L44.2333653,86.3340788 L44.2333653,95.4074542 L46.2206905,95.4074542 L46.2206905,89.6390352 L50.6503223,95.4074542 L52.3615109,95.4074542 L52.3615109,86.3340788 L50.3756165,86.3340788 Z M78.6932115,51.6625459 C78.6932115,51.0168803 78.5944891,50.8664615 78.3927519,50.8664615 L69.2730899,50.8664615 C69.0727836,50.8664615 68.9726304,51.0168803 68.9726304,51.6625459 C68.9726304,52.3096305 69.1228602,52.4089637 69.2730899,52.4572112 C72.8313892,53.1042959 73.0316955,53.451962 73.0316955,57.3287936 L73.0316955,69.753954 L72.8313892,69.753954 C71.7783501,67.9148713 70.6766652,66.1254552 69.4733963,64.2877916 L61.0548065,51.3645464 C60.8545002,51.0168803 60.652763,50.8664615 60.3036577,50.8664615 L51.5846084,50.8664615 C51.3828713,50.8664615 51.2827181,51.0168803 51.2827181,51.6625459 C51.2827181,52.3096305 51.3828713,52.4572112 51.5846084,52.4572112 L53.1870592,52.4572112 C54.6907876,52.4572112 54.8410174,52.606211 54.8410174,54.0976276 L54.8410174,71.7420364 C54.8410174,75.618868 54.640711,75.9665341 51.4830245,76.6121997 C51.3342255,76.6618663 51.1839957,76.7611995 51.1839957,77.4068651 C51.1839957,78.0539497 51.2827181,78.2029495 51.4830245,78.2029495 L60.9546533,78.2029495 C61.1535289,78.2029495 61.2551129,78.0539497 61.2551129,77.4068651 C61.2551129,76.7611995 61.1048831,76.6618663 60.9546533,76.6121997 C57.045818,75.9665341 56.8455116,75.618868 56.8455116,71.7420364 L56.8455116,53.7002949 L57.045818,53.7002949 C57.9471966,55.2910446 59.0002357,56.9811275 60.0017674,58.5207916 L72.5810062,77.7559502 C72.7298052,78.0042831 72.880035,78.2029495 73.2320019,78.2029495 L74.5855005,78.2029495 C74.9861132,78.2029495 75.0361898,77.9546165 75.0361898,77.655198 L75.0361898,57.3287936 C75.0361898,53.451962 75.2364962,53.1042959 78.3927519,52.4572112 C78.5429817,52.4089637 78.6932115,52.3096305 78.6932115,51.6625459 Z M95.750728,62.0513763 C94.9981484,62.794956 93.6446498,63.2930409 92.0407682,63.2930409 L89.1348954,63.2930409 L89.1348954,54.0976276 C89.1348954,52.606211 89.2851251,52.4572112 90.7888535,52.4572112 L92.0407682,52.4572112 C93.744803,52.4572112 94.9981484,52.8545439 95.750728,53.6009617 C96.60203,54.4452936 97.0527193,55.7877105 97.0527193,57.8751261 C97.0527193,59.9625416 96.60203,61.2056253 95.750728,62.0513763 Z M106.874884,77.7559502 C107.175344,77.6069505 106.624501,76.214867 106.272534,76.3638668 C105.771769,76.5625331 105.120773,76.7611995 104.518423,76.7611995 C103.667121,76.7611995 103.216432,76.3127812 103.216432,75.2215354 L103.216432,71.3943703 C103.216432,66.9201206 100.409281,64.7830384 96.0497568,64.0394587 L96.0497568,63.7400401 C100.509435,62.9950414 102.513929,60.7089594 102.513929,57.6764597 C102.513929,53.7002949 99.5079028,50.8664615 93.345621,50.8664615 L81.0167651,50.8664615 C80.8164588,50.8664615 80.7177364,51.0168803 80.7177364,51.6625459 C80.7177364,52.3096305 80.8164588,52.4572112 81.0167651,52.4572112 L82.6206467,52.4572112 C84.1243751,52.4572112 84.2746049,52.606211 84.2746049,54.0976276 L84.2746049,74.9732024 C84.2746049,76.4632 84.1243751,76.6121997 82.6206467,76.6121997 L81.0167651,76.6121997 C80.8164588,76.6121997 80.7177364,76.7611995 80.7177364,77.4068651 C80.7177364,78.0539497 80.8164588,78.2029495 81.0167651,78.2029495 L92.6931946,78.2029495 C92.893501,78.2029495 92.9936542,78.0539497 92.9936542,77.4068651 C92.9936542,76.7611995 92.893501,76.6121997 92.6931946,76.6121997 L90.7888535,76.6121997 C89.2851251,76.6121997 89.1348954,76.4632 89.1348954,74.9732024 L89.1348954,64.8823716 L93.1939605,64.8823716 C96.6506758,64.8823716 98.155835,66.6732067 98.155835,70.0022869 L98.155835,74.4751176 C98.155835,76.9612849 99.2074433,78.5506156 102.914542,78.5506156 C104.41827,78.5506156 106.172381,78.1036163 106.874884,77.7559502 Z M115.768486,74.9732024 L115.768486,54.0976276 C115.768486,52.606211 115.918716,52.4572112 117.421014,52.4572112 L119.024895,52.4572112 C119.225202,52.4572112 119.325355,52.3096305 119.325355,51.6625459 C119.325355,51.0168803 119.225202,50.8664615 119.024895,50.8664615 L107.650356,50.8664615 C107.448619,50.8664615 107.349896,51.0168803 107.349896,51.6625459 C107.349896,52.3096305 107.448619,52.4572112 107.650356,52.4572112 L109.254238,52.4572112 C110.757966,52.4572112 110.906765,52.606211 110.906765,54.0976276 L110.906765,74.9732024 C110.906765,76.4632 110.757966,76.6121997 109.254238,76.6121997 L107.650356,76.6121997 C107.448619,76.6121997 107.349896,76.7611995 107.349896,77.4068651 C107.349896,78.0539497 107.448619,78.2029495 107.650356,78.2029495 L119.024895,78.2029495 C119.225202,78.2029495 119.325355,78.0539497 119.325355,77.4068651 C119.325355,76.7611995 119.225202,76.6121997 119.024895,76.6121997 L117.421014,76.6121997 C115.918716,76.6121997 115.768486,76.4632 115.768486,74.9732024 Z M122.889377,86.3340788 L121.033682,86.3340788 L121.033682,95.4074542 L123.019576,95.4074542 L123.019576,89.6390352 L127.449208,95.4074542 L129.161827,95.4074542 L129.161827,86.3340788 L127.174502,86.3340788 L127.174502,91.92086 L122.889377,86.3340788 Z M125.331684,56.087129 C125.331684,53.8507137 127.163056,51.9605454 130.998923,51.9605454 C133.353953,51.9605454 135.809137,53.4022954 137.763554,57.8268785 C137.862277,58.0752114 137.96243,58.0752114 138.614856,58.0752114 C139.265852,58.0752114 139.367436,57.9744592 139.367436,57.7757929 L139.367436,51.0665469 C139.367436,50.8664615 139.114191,50.7685474 138.614856,50.7685474 C138.164167,50.7685474 138.013937,50.8167949 137.912353,50.9672137 C137.461664,51.6625459 137.211281,51.9122979 136.910822,51.9122979 C136.510209,51.9122979 136.209749,51.8115456 135.658907,51.5135461 C134.055025,50.6692142 132.149253,50.3286433 130.797186,50.2718815 C126.094279,50.0746342 122.176859,53.3029622 122.176859,57.7757929 C122.176859,62.198957 125.935464,64.3360391 130.847262,66.0261221 C136.159673,67.8652047 137.712047,69.3055357 137.712047,72.3380354 C137.712047,74.9235359 135.6074,77.1088656 131.948947,77.1088656 C128.041543,77.1088656 125.736589,75.4684492 123.732094,69.6049542 C123.682018,69.4559545 123.530357,69.3566213 122.879362,69.3566213 C122.228366,69.3566213 122.078136,69.4559545 122.078136,69.6546208 L122.078136,78.0539497 C122.078136,78.252616 122.228366,78.3519492 122.879362,78.3519492 C123.480281,78.3519492 123.581865,78.252616 123.682018,78.1050353 C124.182784,77.4082841 124.53332,77.1088656 125.084162,77.1088656 C125.436129,77.1088656 125.786665,77.2081987 126.187278,77.4082841 C127.991466,78.3519492 129.895807,78.7989485 132.250837,78.7989485 C137.010975,78.7989485 140.869734,75.5692015 140.869734,70.5997049 C140.869734,66.2262074 138.664933,63.7400401 133.202293,61.9009575 C128.041543,60.161208 125.331684,58.6712104 125.331684,56.087129 Z M137.136882,95.5621302 C138.80944,95.5621302 140.102846,94.9136265 141.044286,94.1232183 L141.044286,90.1839486 L137.071067,90.1839486 L137.071067,91.9066696 L139.097022,91.9066696 L139.097022,93.2022579 C138.587672,93.5655335 137.935246,93.7485903 137.202697,93.7485903 C135.581646,93.7485903 134.431315,92.5296304 134.431315,90.8707665 L134.431315,90.8452237 C134.431315,89.3027215 135.594523,88.0184856 137.059621,88.0184856 C138.116952,88.0184856 138.745055,88.3562183 139.45042,88.9394459 L140.716642,87.4239056 C139.763756,86.6178879 138.770809,86.1779838 137.124005,86.1779838 C134.352623,86.1779838 132.328098,88.2923613 132.328098,90.8707665 L132.328098,90.8963093 C132.328098,93.5797239 134.288239,95.5621302 137.136882,95.5621302 Z M164.979464,77.5714743 L164.979464,70.257715 C164.979464,70.0789153 164.840681,70.0079631 164.38713,70.0079631 C163.933579,70.0079631 163.863472,70.0789153 163.794795,70.257715 C161.980592,75.4982492 161.326735,76.8676279 157.246208,76.8676279 L152.019643,76.8605326 C150.78919,76.8605326 150.666145,76.7342376 150.666145,75.4769635 L150.666145,63.6194213 L153.889646,63.6194213 C156.974364,63.6194213 156.887088,65.3307899 157.68259,67.1627773 C157.748405,67.3316437 157.781313,67.4323959 158.213402,67.4323959 C158.644061,67.4323959 158.777121,67.3316437 158.777121,67.1627773 L158.777121,58.6868199 C158.777121,58.5165345 158.644061,58.4498394 158.213402,58.4498394 C157.781313,58.4498394 157.748405,58.5165345 157.68259,58.6868199 C156.887088,60.5173883 156.974364,62.1634808 153.856739,62.1634808 L150.666145,62.1634808 L150.666145,51.4440129 C150.666145,50.1867388 150.78919,50.0604438 152.019643,50.0604438 L154.989901,50.0604438 C159.091888,50.0604438 160.660001,51.1800705 162.229544,55.3520636 C162.299652,55.5294442 162.369759,55.6003965 162.82331,55.6003965 C163.27543,55.6003965 163.379875,55.5294442 163.379875,55.3520636 L163.379875,49.3267974 C163.379875,48.8272934 163.27543,48.6499128 162.787541,48.6499128 L142.460738,48.6499128 C142.296201,48.6499128 142.213217,48.8031697 142.213217,49.3480831 C142.213217,49.8929964 142.296201,50.0604438 142.460738,50.0604438 L144.512448,50.0604438 C145.74147,50.0604438 145.865946,49.8986726 145.865946,51.1559467 L145.865946,75.4769635 C145.865946,76.7342376 145.74147,76.8605326 144.512448,76.8605326 L142.377754,76.8605326 C142.213217,76.8605326 142.130233,76.9868277 142.130233,77.5317411 C142.130233,78.0766544 142.213217,78.2029495 142.377754,78.2029495 L164.38713,78.2483589 C164.87645,78.2483589 164.979464,78.0709783 164.979464,77.5714743 Z M168.400411,75.7536773 C168.400411,75.9182866 168.280227,76.0303912 168.068474,76.0303912 L167.629231,76.0303912 L167.629231,75.4684492 L168.05989,75.4684492 C168.271642,75.4684492 168.400411,75.5635253 168.400411,75.7480012 L168.400411,75.7536773 Z M168.899746,77.0364943 L168.41758,76.338324 C168.667963,76.246086 168.839654,76.0474197 168.839654,75.7309726 L168.839654,75.7267155 C168.839654,75.5422396 168.780993,75.3875637 168.670824,75.2797162 C168.542056,75.1505831 168.347473,75.0810499 168.09709,75.0810499 L167.195711,75.0810499 L167.195711,77.0364943 L167.629231,77.0364943 L167.629231,76.4106953 L167.969752,76.4106953 L168.391826,77.0364943 L168.899746,77.0364943 Z M169.676648,76.1070196 C169.676648,77.0719704 168.894023,77.8708929 167.94686,77.8708929 C167.00542,77.8708929 166.225656,77.0719704 166.225656,76.1070196 C166.225656,75.1406498 167.002559,74.3474035 167.94686,74.3474035 C168.898315,74.3474035 169.676648,75.1335546 169.676648,76.1070196 Z M170,76.1141148 C170,74.9519168 169.081452,74.0252802 167.94686,74.0252802 C166.817991,74.0252802 165.903735,74.959012 165.903735,76.1141148 C165.903735,77.2649605 166.817991,78.1901781 167.94686,78.1901781 C169.081452,78.1901781 170,77.2649605 170,76.1141148 L170,76.1141148 Z" id="Fill-2" fill="#E57131"></path> </g> </g> </g> </svg>